<svg width="35" height="35" viewBox="0 0 35 35" fill="none" xmlns="http://www.w3.org/2000/svg">
<path d="M21.6708 7.72914H7.75833C7.02745 7.72723 6.30337 7.86953 5.62757 8.14789C4.95177 8.42626 4.33753 8.83523 3.82004 9.35137C3.30255 9.8675 2.89197 10.4807 2.61184 11.1557C2.3317 11.8308 2.1875 12.5545 2.1875 13.2854V21.6416C2.1875 23.1191 2.77443 24.5361 3.81916 25.5808C4.86389 26.6256 6.28086 27.2125 7.75833 27.2125H10.5438L14.7146 31.3833L18.9583 27.2125H21.7438C23.2212 27.2125 24.6382 26.6256 25.6829 25.5808C26.7277 24.5361 27.3146 23.1191 27.3146 21.6416V13.2854C27.3147 12.5483 27.1681 11.8186 26.8834 11.1387C26.5987 10.4588 26.1816 9.84237 25.6564 9.32527C25.1311 8.80816 24.5082 8.40073 23.824 8.12671C23.1398 7.85268 22.4078 7.71754 21.6708 7.72914Z" stroke="#163053" stroke-width="3" stroke-miterlimit="10"/>
<path d="M21.6708 7.72914H7.75833C7.02745 7.72723 6.30337 7.86953 5.62757 8.14789C4.95177 8.42626 4.33753 8.83523 3.82004 9.35137C3.30255 9.8675 2.89197 10.4807 2.61184 11.1557C2.3317 11.8308 2.1875 12.5545 2.1875 13.2854V21.6416C2.1875 23.1191 2.77443 24.5361 3.81916 25.5808C4.86389 26.6256 6.28086 27.2125 7.75833 27.2125H10.5438L14.7146 31.3833L18.9583 27.2125H21.7438C23.2212 27.2125 24.6382 26.6256 25.6829 25.5808C26.7277 24.5361 27.3146 23.1191 27.3146 21.6416V13.2854C27.3147 12.5483 27.1681 11.8186 26.8834 11.1387C26.5987 10.4588 26.1816 9.84237 25.6564 9.32527C25.1311 8.80816 24.5082 8.40073 23.824 8.12671C23.1398 7.85268 22.4078 7.71754 21.6708 7.72914Z" stroke="black" stroke-opacity="0.2" stroke-width="3" stroke-miterlimit="10"/>
<path d="M21.6708 7.72914H7.75833C7.02745 7.72723 6.30337 7.86953 5.62757 8.14789C4.95177 8.42626 4.33753 8.83523 3.82004 9.35137C3.30255 9.8675 2.89197 10.4807 2.61184 11.1557C2.3317 11.8308 2.1875 12.5545 2.1875 13.2854V21.6416C2.1875 23.1191 2.77443 24.5361 3.81916 25.5808C4.86389 26.6256 6.28086 27.2125 7.75833 27.2125H10.5438L14.7146 31.3833L18.9583 27.2125H21.7438C23.2212 27.2125 24.6382 26.6256 25.6829 25.5808C26.7277 24.5361 27.3146 23.1191 27.3146 21.6416V13.2854C27.3147 12.5483 27.1681 11.8186 26.8834 11.1387C26.5987 10.4588 26.1816 9.84237 25.6564 9.32527C25.1311 8.80816 24.5082 8.40073 23.824 8.12671C23.1398 7.85268 22.4078 7.71754 21.6708 7.72914Z" stroke="black" stroke-opacity="0.2" stroke-width="3" stroke-miterlimit="10"/>
<path d="M21.6708 7.72914H7.75833C7.02745 7.72723 6.30337 7.86953 5.62757 8.14789C4.95177 8.42626 4.33753 8.83523 3.82004 9.35137C3.30255 9.8675 2.89197 10.4807 2.61184 11.1557C2.3317 11.8308 2.1875 12.5545 2.1875 13.2854V21.6416C2.1875 23.1191 2.77443 24.5361 3.81916 25.5808C4.86389 26.6256 6.28086 27.2125 7.75833 27.2125H10.5438L14.7146 31.3833L18.9583 27.2125H21.7438C23.2212 27.2125 24.6382 26.6256 25.6829 25.5808C26.7277 24.5361 27.3146 23.1191 27.3146 21.6416V13.2854C27.3147 12.5483 27.1681 11.8186 26.8834 11.1387C26.5987 10.4588 26.1816 9.84237 25.6564 9.32527C25.1311 8.80816 24.5082 8.40073 23.824 8.12671C23.1398 7.85268 22.4078 7.71754 21.6708 7.72914Z" stroke="black" stroke-opacity="0.2" stroke-width="3" stroke-miterlimit="10"/>
<path d="M21.6708 7.72914H7.75833C7.02745 7.72723 6.30337 7.86953 5.62757 8.14789C4.95177 8.42626 4.33753 8.83523 3.82004 9.35137C3.30255 9.8675 2.89197 10.4807 2.61184 11.1557C2.3317 11.8308 2.1875 12.5545 2.1875 13.2854V21.6416C2.1875 23.1191 2.77443 24.5361 3.81916 25.5808C4.86389 26.6256 6.28086 27.2125 7.75833 27.2125H10.5438L14.7146 31.3833L18.9583 27.2125H21.7438C23.2212 27.2125 24.6382 26.6256 25.6829 25.5808C26.7277 24.5361 27.3146 23.1191 27.3146 21.6416V13.2854C27.3147 12.5483 27.1681 11.8186 26.8834 11.1387C26.5987 10.4588 26.1816 9.84237 25.6564 9.32527C25.1311 8.80816 24.5082 8.40073 23.824 8.12671C23.1398 7.85268 22.4078 7.71754 21.6708 7.72914Z" stroke="black" stroke-opacity="0.2" stroke-width="3" stroke-miterlimit="10"/>
<path d="M21.6708 7.72914H7.75833C7.02745 7.72723 6.30337 7.86953 5.62757 8.14789C4.95177 8.42626 4.33753 8.83523 3.82004 9.35137C3.30255 9.8675 2.89197 10.4807 2.61184 11.1557C2.3317 11.8308 2.1875 12.5545 2.1875 13.2854V21.6416C2.1875 23.1191 2.77443 24.5361 3.81916 25.5808C4.86389 26.6256 6.28086 27.2125 7.75833 27.2125H10.5438L14.7146 31.3833L18.9583 27.2125H21.7438C23.2212 27.2125 24.6382 26.6256 25.6829 25.5808C26.7277 24.5361 27.3146 23.1191 27.3146 21.6416V13.2854C27.3147 12.5483 27.1681 11.8186 26.8834 11.1387C26.5987 10.4588 26.1816 9.84237 25.6564 9.32527C25.1311 8.80816 24.5082 8.40073 23.824 8.12671C23.1398 7.85268 22.4078 7.71754 21.6708 7.72914Z" stroke="black" stroke-opacity="0.2" stroke-width="3" stroke-miterlimit="10"/>
<path d="M21.6708 7.72914H7.75833C7.02745 7.72723 6.30337 7.86953 5.62757 8.14789C4.95177 8.42626 4.33753 8.83523 3.82004 9.35137C3.30255 9.8675 2.89197 10.4807 2.61184 11.1557C2.3317 11.8308 2.1875 12.5545 2.1875 13.2854V21.6416C2.1875 23.1191 2.77443 24.5361 3.81916 25.5808C4.86389 26.6256 6.28086 27.2125 7.75833 27.2125H10.5438L14.7146 31.3833L18.9583 27.2125H21.7438C23.2212 27.2125 24.6382 26.6256 25.6829 25.5808C26.7277 24.5361 27.3146 23.1191 27.3146 21.6416V13.2854C27.3147 12.5483 27.1681 11.8186 26.8834 11.1387C26.5987 10.4588 26.1816 9.84237 25.6564 9.32527C25.1311 8.80816 24.5082 8.40073 23.824 8.12671C23.1398 7.85268 22.4078 7.71754 21.6708 7.72914Z" stroke="black" stroke-opacity="0.2" stroke-width="3" stroke-miterlimit="10"/>
<path d="M21.6708 7.72914H7.75833C7.02745 7.72723 6.30337 7.86953 5.62757 8.14789C4.95177 8.42626 4.33753 8.83523 3.82004 9.35137C3.30255 9.8675 2.89197 10.4807 2.61184 11.1557C2.3317 11.8308 2.1875 12.5545 2.1875 13.2854V21.6416C2.1875 23.1191 2.77443 24.5361 3.81916 25.5808C4.86389 26.6256 6.28086 27.2125 7.75833 27.2125H10.5438L14.7146 31.3833L18.9583 27.2125H21.7438C23.2212 27.2125 24.6382 26.6256 25.6829 25.5808C26.7277 24.5361 27.3146 23.1191 27.3146 21.6416V13.2854C27.3147 12.5483 27.1681 11.8186 26.8834 11.1387C26.5987 10.4588 26.1816 9.84237 25.6564 9.32527C25.1311 8.80816 24.5082 8.40073 23.824 8.12671C23.1398 7.85268 22.4078 7.71754 21.6708 7.72914Z" stroke="black" stroke-opacity="0.2" stroke-width="3" stroke-miterlimit="10"/>
<path d="M27.2416 21.6417C27.9757 21.6417 28.7025 21.4966 29.3803 21.2148C30.0581 20.933 30.6735 20.5201 31.1912 19.9997C31.7088 19.4793 32.1186 18.8617 32.3968 18.1825C32.6751 17.5032 32.8163 16.7757 32.8125 16.0417V7.72916C32.8125 6.25168 32.2255 4.83472 31.1808 3.78998C30.1361 2.74525 28.7191 2.15833 27.2416 2.15833H13.3291C11.8517 2.15833 10.4347 2.74525 9.38996 3.78998C8.34523 4.83472 7.7583 6.25168 7.7583 7.72916" stroke="#163053" stroke-width="3" stroke-miterlimit="10"/>
<path d="M27.2416 21.6417C27.9757 21.6417 28.7025 21.4966 29.3803 21.2148C30.0581 20.933 30.6735 20.5201 31.1912 19.9997C31.7088 19.4793 32.1186 18.8617 32.3968 18.1825C32.6751 17.5032 32.8163 16.7757 32.8125 16.0417V7.72916C32.8125 6.25168 32.2255 4.83472 31.1808 3.78998C30.1361 2.74525 28.7191 2.15833 27.2416 2.15833H13.3291C11.8517 2.15833 10.4347 2.74525 9.38996 3.78998C8.34523 4.83472 7.7583 6.25168 7.7583 7.72916" stroke="black" stroke-opacity="0.2" stroke-width="3" stroke-miterlimit="10"/>
<path d="M27.2416 21.6417C27.9757 21.6417 28.7025 21.4966 29.3803 21.2148C30.0581 20.933 30.6735 20.5201 31.1912 19.9997C31.7088 19.4793 32.1186 18.8617 32.3968 18.1825C32.6751 17.5032 32.8163 16.7757 32.8125 16.0417V7.72916C32.8125 6.25168 32.2255 4.83472 31.1808 3.78998C30.1361 2.74525 28.7191 2.15833 27.2416 2.15833H13.3291C11.8517 2.15833 10.4347 2.74525 9.38996 3.78998C8.34523 4.83472 7.7583 6.25168 7.7583 7.72916" stroke="black" stroke-opacity="0.2" stroke-width="3" stroke-miterlimit="10"/>
<path d="M27.2416 21.6417C27.9757 21.6417 28.7025 21.4966 29.3803 21.2148C30.0581 20.933 30.6735 20.5201 31.1912 19.9997C31.7088 19.4793 32.1186 18.8617 32.3968 18.1825C32.6751 17.5032 32.8163 16.7757 32.8125 16.0417V7.72916C32.8125 6.25168 32.2255 4.83472 31.1808 3.78998C30.1361 2.74525 28.7191 2.15833 27.2416 2.15833H13.3291C11.8517 2.15833 10.4347 2.74525 9.38996 3.78998C8.34523 4.83472 7.7583 6.25168 7.7583 7.72916" stroke="black" stroke-opacity="0.2" stroke-width="3" stroke-miterlimit="10"/>
<path d="M27.2416 21.6417C27.9757 21.6417 28.7025 21.4966 29.3803 21.2148C30.0581 20.933 30.6735 20.5201 31.1912 19.9997C31.7088 19.4793 32.1186 18.8617 32.3968 18.1825C32.6751 17.5032 32.8163 16.7757 32.8125 16.0417V7.72916C32.8125 6.25168 32.2255 4.83472 31.1808 3.78998C30.1361 2.74525 28.7191 2.15833 27.2416 2.15833H13.3291C11.8517 2.15833 10.4347 2.74525 9.38996 3.78998C8.34523 4.83472 7.7583 6.25168 7.7583 7.72916" stroke="black" stroke-opacity="0.2" stroke-width="3" stroke-miterlimit="10"/>
<path d="M27.2416 21.6417C27.9757 21.6417 28.7025 21.4966 29.3803 21.2148C30.0581 20.933 30.6735 20.5201 31.1912 19.9997C31.7088 19.4793 32.1186 18.8617 32.3968 18.1825C32.6751 17.5032 32.8163 16.7757 32.8125 16.0417V7.72916C32.8125 6.25168 32.2255 4.83472 31.1808 3.78998C30.1361 2.74525 28.7191 2.15833 27.2416 2.15833H13.3291C11.8517 2.15833 10.4347 2.74525 9.38996 3.78998C8.34523 4.83472 7.7583 6.25168 7.7583 7.72916" stroke="black" stroke-opacity="0.2" stroke-width="3" stroke-miterlimit="10"/>
<path d="M27.2416 21.6417C27.9757 21.6417 28.7025 21.4966 29.3803 21.2148C30.0581 20.933 30.6735 20.5201 31.1912 19.9997C31.7088 19.4793 32.1186 18.8617 32.3968 18.1825C32.6751 17.5032 32.8163 16.7757 32.8125 16.0417V7.72916C32.8125 6.25168 32.2255 4.83472 31.1808 3.78998C30.1361 2.74525 28.7191 2.15833 27.2416 2.15833H13.3291C11.8517 2.15833 10.4347 2.74525 9.38996 3.78998C8.34523 4.83472 7.7583 6.25168 7.7583 7.72916" stroke="black" stroke-opacity="0.2" stroke-width="3" stroke-miterlimit="10"/>
<path d="M27.2416 21.6417C27.9757 21.6417 28.7025 21.4966 29.3803 21.2148C30.0581 20.933 30.6735 20.5201 31.1912 19.9997C31.7088 19.4793 32.1186 18.8617 32.3968 18.1825C32.6751 17.5032 32.8163 16.7757 32.8125 16.0417V7.72916C32.8125 6.25168 32.2255 4.83472 31.1808 3.78998C30.1361 2.74525 28.7191 2.15833 27.2416 2.15833H13.3291C11.8517 2.15833 10.4347 2.74525 9.38996 3.78998C8.34523 4.83472 7.7583 6.25168 7.7583 7.72916" stroke="black" stroke-opacity="0.2" stroke-width="3" stroke-miterlimit="10"/>
<path d="M7.7583 17.4708H10.5437" stroke="#163053" stroke-width="3" stroke-miterlimit="10"/>
<path d="M7.7583 17.4708H10.5437" stroke="black" stroke-opacity="0.2" stroke-width="3" stroke-miterlimit="10"/>
<path d="M7.7583 17.4708H10.5437" stroke="black" stroke-opacity="0.2" stroke-width="3" stroke-miterlimit="10"/>
<path d="M7.7583 17.4708H10.5437" stroke="black" stroke-opacity="0.2" stroke-width="3" stroke-miterlimit="10"/>
<path d="M7.7583 17.4708H10.5437" stroke="black" stroke-opacity="0.2" stroke-width="3" stroke-miterlimit="10"/>
<path d="M7.7583 17.4708H10.5437" stroke="black" stroke-opacity="0.2" stroke-width="3" stroke-miterlimit="10"/>
<path d="M7.7583 17.4708H10.5437" stroke="black" stroke-opacity="0.2" stroke-width="3" stroke-miterlimit="10"/>
<path d="M7.7583 17.4708H10.5437" stroke="black" stroke-opacity="0.2" stroke-width="3" stroke-miterlimit="10"/>
<path d="M13.3292 17.4708H16.1146" stroke="#163053" stroke-width="3" stroke-miterlimit="10"/>
<path d="M13.3292 17.4708H16.1146" stroke="black" stroke-opacity="0.2" stroke-width="3" stroke-miterlimit="10"/>
<path d="M13.3292 17.4708H16.1146" stroke="black" stroke-opacity="0.2" stroke-width="3" stroke-miterlimit="10"/>
<path d="M13.3292 17.4708H16.1146" stroke="black" stroke-opacity="0.2" stroke-width="3" stroke-miterlimit="10"/>
<path d="M13.3292 17.4708H16.1146" stroke="black" stroke-opacity="0.2" stroke-width="3" stroke-miterlimit="10"/>
<path d="M13.3292 17.4708H16.1146" stroke="black" stroke-opacity="0.2" stroke-width="3" stroke-miterlimit="10"/>
<path d="M13.3292 17.4708H16.1146" stroke="black" stroke-opacity="0.2" stroke-width="3" stroke-miterlimit="10"/>
<path d="M13.3292 17.4708H16.1146" stroke="black" stroke-opacity="0.2" stroke-width="3" stroke-miterlimit="10"/>
<path d="M18.8854 17.4708H21.6708" stroke="#163053" stroke-width="3" stroke-miterlimit="10"/>
<path d="M18.8854 17.4708H21.6708" stroke="black" stroke-opacity="0.2" stroke-width="3" stroke-miterlimit="10"/>
<path d="M18.8854 17.4708H21.6708" stroke="black" stroke-opacity="0.2" stroke-width="3" stroke-miterlimit="10"/>
<path d="M18.8854 17.4708H21.6708" stroke="black" stroke-opacity="0.2" stroke-width="3" stroke-miterlimit="10"/>
<path d="M18.8854 17.4708H21.6708" stroke="black" stroke-opacity="0.2" stroke-width="3" stroke-miterlimit="10"/>
<path d="M18.8854 17.4708H21.6708" stroke="black" stroke-opacity="0.2" stroke-width="3" stroke-miterlimit="10"/>
<path d="M18.8854 17.4708H21.6708" stroke="black" stroke-opacity="0.2" stroke-width="3" stroke-miterlimit="10"/>
<path d="M18.8854 17.4708H21.6708" stroke="black" stroke-opacity="0.2" stroke-width="3" stroke-miterlimit="10"/>
</svg>
