<svg width="36" height="35" viewBox="0 0 36 35" fill="none" xmlns="http://www.w3.org/2000/svg">
<path d="M13.8292 7.40833C13.8292 10.8937 8.25833 16.1583 8.25833 16.1583C8.25833 16.1583 2.6875 10.8937 2.6875 7.40833C2.71011 6.69962 2.87219 6.00232 3.16446 5.35629C3.45673 4.71026 3.87347 4.12817 4.39084 3.6433C4.90822 3.15843 5.51609 2.78029 6.1797 2.53049C6.84331 2.28069 7.54965 2.16414 8.25833 2.1875C8.96702 2.16414 9.67336 2.28069 10.337 2.53049C11.0006 2.78029 11.6084 3.15843 12.1258 3.6433C12.6432 4.12817 13.0599 4.71026 13.3522 5.35629C13.6445 6.00232 13.8066 6.69962 13.8292 7.40833Z" stroke="#163053" stroke-width="3" stroke-miterlimit="10"/>
<path d="M13.8292 7.40833C13.8292 10.8937 8.25833 16.1583 8.25833 16.1583C8.25833 16.1583 2.6875 10.8937 2.6875 7.40833C2.71011 6.69962 2.87219 6.00232 3.16446 5.35629C3.45673 4.71026 3.87347 4.12817 4.39084 3.6433C4.90822 3.15843 5.51609 2.78029 6.1797 2.53049C6.84331 2.28069 7.54965 2.16414 8.25833 2.1875C8.96702 2.16414 9.67336 2.28069 10.337 2.53049C11.0006 2.78029 11.6084 3.15843 12.1258 3.6433C12.6432 4.12817 13.0599 4.71026 13.3522 5.35629C13.6445 6.00232 13.8066 6.69962 13.8292 7.40833Z" stroke="black" stroke-opacity="0.2" stroke-width="3" stroke-miterlimit="10"/>
<path d="M13.8292 7.40833C13.8292 10.8937 8.25833 16.1583 8.25833 16.1583C8.25833 16.1583 2.6875 10.8937 2.6875 7.40833C2.71011 6.69962 2.87219 6.00232 3.16446 5.35629C3.45673 4.71026 3.87347 4.12817 4.39084 3.6433C4.90822 3.15843 5.51609 2.78029 6.1797 2.53049C6.84331 2.28069 7.54965 2.16414 8.25833 2.1875C8.96702 2.16414 9.67336 2.28069 10.337 2.53049C11.0006 2.78029 11.6084 3.15843 12.1258 3.6433C12.6432 4.12817 13.0599 4.71026 13.3522 5.35629C13.6445 6.00232 13.8066 6.69962 13.8292 7.40833Z" stroke="black" stroke-opacity="0.2" stroke-width="3" stroke-miterlimit="10"/>
<path d="M13.8292 7.40833C13.8292 10.8937 8.25833 16.1583 8.25833 16.1583C8.25833 16.1583 2.6875 10.8937 2.6875 7.40833C2.71011 6.69962 2.87219 6.00232 3.16446 5.35629C3.45673 4.71026 3.87347 4.12817 4.39084 3.6433C4.90822 3.15843 5.51609 2.78029 6.1797 2.53049C6.84331 2.28069 7.54965 2.16414 8.25833 2.1875C8.96702 2.16414 9.67336 2.28069 10.337 2.53049C11.0006 2.78029 11.6084 3.15843 12.1258 3.6433C12.6432 4.12817 13.0599 4.71026 13.3522 5.35629C13.6445 6.00232 13.8066 6.69962 13.8292 7.40833Z" stroke="black" stroke-opacity="0.2" stroke-width="3" stroke-miterlimit="10"/>
<path d="M13.8292 7.40833C13.8292 10.8937 8.25833 16.1583 8.25833 16.1583C8.25833 16.1583 2.6875 10.8937 2.6875 7.40833C2.71011 6.69962 2.87219 6.00232 3.16446 5.35629C3.45673 4.71026 3.87347 4.12817 4.39084 3.6433C4.90822 3.15843 5.51609 2.78029 6.1797 2.53049C6.84331 2.28069 7.54965 2.16414 8.25833 2.1875C8.96702 2.16414 9.67336 2.28069 10.337 2.53049C11.0006 2.78029 11.6084 3.15843 12.1258 3.6433C12.6432 4.12817 13.0599 4.71026 13.3522 5.35629C13.6445 6.00232 13.8066 6.69962 13.8292 7.40833Z" stroke="black" stroke-opacity="0.2" stroke-width="3" stroke-miterlimit="10"/>
<path d="M13.8292 7.40833C13.8292 10.8937 8.25833 16.1583 8.25833 16.1583C8.25833 16.1583 2.6875 10.8937 2.6875 7.40833C2.71011 6.69962 2.87219 6.00232 3.16446 5.35629C3.45673 4.71026 3.87347 4.12817 4.39084 3.6433C4.90822 3.15843 5.51609 2.78029 6.1797 2.53049C6.84331 2.28069 7.54965 2.16414 8.25833 2.1875C8.96702 2.16414 9.67336 2.28069 10.337 2.53049C11.0006 2.78029 11.6084 3.15843 12.1258 3.6433C12.6432 4.12817 13.0599 4.71026 13.3522 5.35629C13.6445 6.00232 13.8066 6.69962 13.8292 7.40833Z" stroke="black" stroke-opacity="0.2" stroke-width="3" stroke-miterlimit="10"/>
<path d="M13.8292 7.40833C13.8292 10.8937 8.25833 16.1583 8.25833 16.1583C8.25833 16.1583 2.6875 10.8937 2.6875 7.40833C2.71011 6.69962 2.87219 6.00232 3.16446 5.35629C3.45673 4.71026 3.87347 4.12817 4.39084 3.6433C4.90822 3.15843 5.51609 2.78029 6.1797 2.53049C6.84331 2.28069 7.54965 2.16414 8.25833 2.1875C8.96702 2.16414 9.67336 2.28069 10.337 2.53049C11.0006 2.78029 11.6084 3.15843 12.1258 3.6433C12.6432 4.12817 13.0599 4.71026 13.3522 5.35629C13.6445 6.00232 13.8066 6.69962 13.8292 7.40833Z" stroke="black" stroke-opacity="0.2" stroke-width="3" stroke-miterlimit="10"/>
<path d="M13.8292 7.40833C13.8292 10.8937 8.25833 16.1583 8.25833 16.1583C8.25833 16.1583 2.6875 10.8937 2.6875 7.40833C2.71011 6.69962 2.87219 6.00232 3.16446 5.35629C3.45673 4.71026 3.87347 4.12817 4.39084 3.6433C4.90822 3.15843 5.51609 2.78029 6.1797 2.53049C6.84331 2.28069 7.54965 2.16414 8.25833 2.1875C8.96702 2.16414 9.67336 2.28069 10.337 2.53049C11.0006 2.78029 11.6084 3.15843 12.1258 3.6433C12.6432 4.12817 13.0599 4.71026 13.3522 5.35629C13.6445 6.00232 13.8066 6.69962 13.8292 7.40833Z" stroke="black" stroke-opacity="0.2" stroke-width="3" stroke-miterlimit="10"/>
<path d="M8.25834 9.14376C9.02349 9.14376 9.64376 8.52349 9.64376 7.75834C9.64376 6.9932 9.02349 6.37292 8.25834 6.37292C7.4932 6.37292 6.87292 6.9932 6.87292 7.75834C6.87292 8.52349 7.4932 9.14376 8.25834 9.14376Z" fill="#163053"/>
<path d="M8.25834 9.14376C9.02349 9.14376 9.64376 8.52349 9.64376 7.75834C9.64376 6.9932 9.02349 6.37292 8.25834 6.37292C7.4932 6.37292 6.87292 6.9932 6.87292 7.75834C6.87292 8.52349 7.4932 9.14376 8.25834 9.14376Z" fill="black" fill-opacity="0.2"/>
<path d="M8.25834 9.14376C9.02349 9.14376 9.64376 8.52349 9.64376 7.75834C9.64376 6.9932 9.02349 6.37292 8.25834 6.37292C7.4932 6.37292 6.87292 6.9932 6.87292 7.75834C6.87292 8.52349 7.4932 9.14376 8.25834 9.14376Z" fill="black" fill-opacity="0.2"/>
<path d="M8.25834 9.14376C9.02349 9.14376 9.64376 8.52349 9.64376 7.75834C9.64376 6.9932 9.02349 6.37292 8.25834 6.37292C7.4932 6.37292 6.87292 6.9932 6.87292 7.75834C6.87292 8.52349 7.4932 9.14376 8.25834 9.14376Z" fill="black" fill-opacity="0.2"/>
<path d="M8.25834 9.14376C9.02349 9.14376 9.64376 8.52349 9.64376 7.75834C9.64376 6.9932 9.02349 6.37292 8.25834 6.37292C7.4932 6.37292 6.87292 6.9932 6.87292 7.75834C6.87292 8.52349 7.4932 9.14376 8.25834 9.14376Z" fill="black" fill-opacity="0.2"/>
<path d="M8.25834 9.14376C9.02349 9.14376 9.64376 8.52349 9.64376 7.75834C9.64376 6.9932 9.02349 6.37292 8.25834 6.37292C7.4932 6.37292 6.87292 6.9932 6.87292 7.75834C6.87292 8.52349 7.4932 9.14376 8.25834 9.14376Z" fill="black" fill-opacity="0.2"/>
<path d="M8.25834 9.14376C9.02349 9.14376 9.64376 8.52349 9.64376 7.75834C9.64376 6.9932 9.02349 6.37292 8.25834 6.37292C7.4932 6.37292 6.87292 6.9932 6.87292 7.75834C6.87292 8.52349 7.4932 9.14376 8.25834 9.14376Z" fill="black" fill-opacity="0.2"/>
<path d="M8.25834 9.14376C9.02349 9.14376 9.64376 8.52349 9.64376 7.75834C9.64376 6.9932 9.02349 6.37292 8.25834 6.37292C7.4932 6.37292 6.87292 6.9932 6.87292 7.75834C6.87292 8.52349 7.4932 9.14376 8.25834 9.14376Z" fill="black" fill-opacity="0.2"/>
<path d="M33.3124 21.3208C33.3124 24.8062 27.7416 30.0708 27.7416 30.0708C27.7416 30.0708 22.1708 24.85 22.1708 21.3208C22.2202 19.8921 22.8346 18.5413 23.8791 17.5652C24.9236 16.5891 26.3128 16.0674 27.7416 16.1146C29.1704 16.0674 30.5596 16.5891 31.6041 17.5652C32.6486 18.5413 33.263 19.8921 33.3124 21.3208Z" stroke="#163053" stroke-width="3" stroke-miterlimit="10"/>
<path d="M33.3124 21.3208C33.3124 24.8062 27.7416 30.0708 27.7416 30.0708C27.7416 30.0708 22.1708 24.85 22.1708 21.3208C22.2202 19.8921 22.8346 18.5413 23.8791 17.5652C24.9236 16.5891 26.3128 16.0674 27.7416 16.1146C29.1704 16.0674 30.5596 16.5891 31.6041 17.5652C32.6486 18.5413 33.263 19.8921 33.3124 21.3208Z" stroke="black" stroke-opacity="0.2" stroke-width="3" stroke-miterlimit="10"/>
<path d="M33.3124 21.3208C33.3124 24.8062 27.7416 30.0708 27.7416 30.0708C27.7416 30.0708 22.1708 24.85 22.1708 21.3208C22.2202 19.8921 22.8346 18.5413 23.8791 17.5652C24.9236 16.5891 26.3128 16.0674 27.7416 16.1146C29.1704 16.0674 30.5596 16.5891 31.6041 17.5652C32.6486 18.5413 33.263 19.8921 33.3124 21.3208Z" stroke="black" stroke-opacity="0.2" stroke-width="3" stroke-miterlimit="10"/>
<path d="M33.3124 21.3208C33.3124 24.8062 27.7416 30.0708 27.7416 30.0708C27.7416 30.0708 22.1708 24.85 22.1708 21.3208C22.2202 19.8921 22.8346 18.5413 23.8791 17.5652C24.9236 16.5891 26.3128 16.0674 27.7416 16.1146C29.1704 16.0674 30.5596 16.5891 31.6041 17.5652C32.6486 18.5413 33.263 19.8921 33.3124 21.3208Z" stroke="black" stroke-opacity="0.2" stroke-width="3" stroke-miterlimit="10"/>
<path d="M33.3124 21.3208C33.3124 24.8062 27.7416 30.0708 27.7416 30.0708C27.7416 30.0708 22.1708 24.85 22.1708 21.3208C22.2202 19.8921 22.8346 18.5413 23.8791 17.5652C24.9236 16.5891 26.3128 16.0674 27.7416 16.1146C29.1704 16.0674 30.5596 16.5891 31.6041 17.5652C32.6486 18.5413 33.263 19.8921 33.3124 21.3208Z" stroke="black" stroke-opacity="0.2" stroke-width="3" stroke-miterlimit="10"/>
<path d="M33.3124 21.3208C33.3124 24.8062 27.7416 30.0708 27.7416 30.0708C27.7416 30.0708 22.1708 24.85 22.1708 21.3208C22.2202 19.8921 22.8346 18.5413 23.8791 17.5652C24.9236 16.5891 26.3128 16.0674 27.7416 16.1146C29.1704 16.0674 30.5596 16.5891 31.6041 17.5652C32.6486 18.5413 33.263 19.8921 33.3124 21.3208Z" stroke="black" stroke-opacity="0.2" stroke-width="3" stroke-miterlimit="10"/>
<path d="M33.3124 21.3208C33.3124 24.8062 27.7416 30.0708 27.7416 30.0708C27.7416 30.0708 22.1708 24.85 22.1708 21.3208C22.2202 19.8921 22.8346 18.5413 23.8791 17.5652C24.9236 16.5891 26.3128 16.0674 27.7416 16.1146C29.1704 16.0674 30.5596 16.5891 31.6041 17.5652C32.6486 18.5413 33.263 19.8921 33.3124 21.3208Z" stroke="black" stroke-opacity="0.2" stroke-width="3" stroke-miterlimit="10"/>
<path d="M33.3124 21.3208C33.3124 24.8062 27.7416 30.0708 27.7416 30.0708C27.7416 30.0708 22.1708 24.85 22.1708 21.3208C22.2202 19.8921 22.8346 18.5413 23.8791 17.5652C24.9236 16.5891 26.3128 16.0674 27.7416 16.1146C29.1704 16.0674 30.5596 16.5891 31.6041 17.5652C32.6486 18.5413 33.263 19.8921 33.3124 21.3208Z" stroke="black" stroke-opacity="0.2" stroke-width="3" stroke-miterlimit="10"/>
<path d="M27.7416 23.0562C28.5068 23.0562 29.127 22.436 29.127 21.6708C29.127 20.9057 28.5068 20.2854 27.7416 20.2854C26.9765 20.2854 26.3562 20.9057 26.3562 21.6708C26.3562 22.436 26.9765 23.0562 27.7416 23.0562Z" fill="#163053"/>
<path d="M27.7416 23.0562C28.5068 23.0562 29.127 22.436 29.127 21.6708C29.127 20.9057 28.5068 20.2854 27.7416 20.2854C26.9765 20.2854 26.3562 20.9057 26.3562 21.6708C26.3562 22.436 26.9765 23.0562 27.7416 23.0562Z" fill="black" fill-opacity="0.2"/>
<path d="M27.7416 23.0562C28.5068 23.0562 29.127 22.436 29.127 21.6708C29.127 20.9057 28.5068 20.2854 27.7416 20.2854C26.9765 20.2854 26.3562 20.9057 26.3562 21.6708C26.3562 22.436 26.9765 23.0562 27.7416 23.0562Z" fill="black" fill-opacity="0.2"/>
<path d="M27.7416 23.0562C28.5068 23.0562 29.127 22.436 29.127 21.6708C29.127 20.9057 28.5068 20.2854 27.7416 20.2854C26.9765 20.2854 26.3562 20.9057 26.3562 21.6708C26.3562 22.436 26.9765 23.0562 27.7416 23.0562Z" fill="black" fill-opacity="0.2"/>
<path d="M27.7416 23.0562C28.5068 23.0562 29.127 22.436 29.127 21.6708C29.127 20.9057 28.5068 20.2854 27.7416 20.2854C26.9765 20.2854 26.3562 20.9057 26.3562 21.6708C26.3562 22.436 26.9765 23.0562 27.7416 23.0562Z" fill="black" fill-opacity="0.2"/>
<path d="M27.7416 23.0562C28.5068 23.0562 29.127 22.436 29.127 21.6708C29.127 20.9057 28.5068 20.2854 27.7416 20.2854C26.9765 20.2854 26.3562 20.9057 26.3562 21.6708C26.3562 22.436 26.9765 23.0562 27.7416 23.0562Z" fill="black" fill-opacity="0.2"/>
<path d="M27.7416 23.0562C28.5068 23.0562 29.127 22.436 29.127 21.6708C29.127 20.9057 28.5068 20.2854 27.7416 20.2854C26.9765 20.2854 26.3562 20.9057 26.3562 21.6708C26.3562 22.436 26.9765 23.0562 27.7416 23.0562Z" fill="black" fill-opacity="0.2"/>
<path d="M27.7416 23.0562C28.5068 23.0562 29.127 22.436 29.127 21.6708C29.127 20.9057 28.5068 20.2854 27.7416 20.2854C26.9765 20.2854 26.3562 20.9057 26.3562 21.6708C26.3562 22.436 26.9765 23.0562 27.7416 23.0562Z" fill="black" fill-opacity="0.2"/>
<path d="M6.85833 18.9583H13.1292C13.5869 18.9583 14.0401 19.0485 14.463 19.2236C14.8858 19.3988 15.2701 19.6555 15.5937 19.9792C15.9174 20.3028 16.1741 20.687 16.3493 21.1099C16.5244 21.5328 16.6146 21.986 16.6146 22.4437C16.6146 22.9014 16.5244 23.3547 16.3493 23.7775C16.1741 24.2004 15.9174 24.5846 15.5937 24.9083C15.2701 25.2319 14.8858 25.4887 14.463 25.6638C14.0401 25.839 13.5869 25.9291 13.1292 25.9291H6.17292C5.26349 25.9289 4.38997 26.284 3.73878 26.9189C3.0876 27.5537 2.71033 28.4179 2.6875 29.3271C2.6875 30.2515 3.05471 31.138 3.70835 31.7916C4.362 32.4453 5.24853 32.8125 6.17292 32.8125H29.1417" stroke="#163053" stroke-width="3" stroke-miterlimit="10"/>
<path d="M6.85833 18.9583H13.1292C13.5869 18.9583 14.0401 19.0485 14.463 19.2236C14.8858 19.3988 15.2701 19.6555 15.5937 19.9792C15.9174 20.3028 16.1741 20.687 16.3493 21.1099C16.5244 21.5328 16.6146 21.986 16.6146 22.4437C16.6146 22.9014 16.5244 23.3547 16.3493 23.7775C16.1741 24.2004 15.9174 24.5846 15.5937 24.9083C15.2701 25.2319 14.8858 25.4887 14.463 25.6638C14.0401 25.839 13.5869 25.9291 13.1292 25.9291H6.17292C5.26349 25.9289 4.38997 26.284 3.73878 26.9189C3.0876 27.5537 2.71033 28.4179 2.6875 29.3271C2.6875 30.2515 3.05471 31.138 3.70835 31.7916C4.362 32.4453 5.24853 32.8125 6.17292 32.8125H29.1417" stroke="black" stroke-opacity="0.2" stroke-width="3" stroke-miterlimit="10"/>
<path d="M6.85833 18.9583H13.1292C13.5869 18.9583 14.0401 19.0485 14.463 19.2236C14.8858 19.3988 15.2701 19.6555 15.5937 19.9792C15.9174 20.3028 16.1741 20.687 16.3493 21.1099C16.5244 21.5328 16.6146 21.986 16.6146 22.4437C16.6146 22.9014 16.5244 23.3547 16.3493 23.7775C16.1741 24.2004 15.9174 24.5846 15.5937 24.9083C15.2701 25.2319 14.8858 25.4887 14.463 25.6638C14.0401 25.839 13.5869 25.9291 13.1292 25.9291H6.17292C5.26349 25.9289 4.38997 26.284 3.73878 26.9189C3.0876 27.5537 2.71033 28.4179 2.6875 29.3271C2.6875 30.2515 3.05471 31.138 3.70835 31.7916C4.362 32.4453 5.24853 32.8125 6.17292 32.8125H29.1417" stroke="black" stroke-opacity="0.2" stroke-width="3" stroke-miterlimit="10"/>
<path d="M6.85833 18.9583H13.1292C13.5869 18.9583 14.0401 19.0485 14.463 19.2236C14.8858 19.3988 15.2701 19.6555 15.5937 19.9792C15.9174 20.3028 16.1741 20.687 16.3493 21.1099C16.5244 21.5328 16.6146 21.986 16.6146 22.4437C16.6146 22.9014 16.5244 23.3547 16.3493 23.7775C16.1741 24.2004 15.9174 24.5846 15.5937 24.9083C15.2701 25.2319 14.8858 25.4887 14.463 25.6638C14.0401 25.839 13.5869 25.9291 13.1292 25.9291H6.17292C5.26349 25.9289 4.38997 26.284 3.73878 26.9189C3.0876 27.5537 2.71033 28.4179 2.6875 29.3271C2.6875 30.2515 3.05471 31.138 3.70835 31.7916C4.362 32.4453 5.24853 32.8125 6.17292 32.8125H29.1417" stroke="black" stroke-opacity="0.2" stroke-width="3" stroke-miterlimit="10"/>
<path d="M6.85833 18.9583H13.1292C13.5869 18.9583 14.0401 19.0485 14.463 19.2236C14.8858 19.3988 15.2701 19.6555 15.5937 19.9792C15.9174 20.3028 16.1741 20.687 16.3493 21.1099C16.5244 21.5328 16.6146 21.986 16.6146 22.4437C16.6146 22.9014 16.5244 23.3547 16.3493 23.7775C16.1741 24.2004 15.9174 24.5846 15.5937 24.9083C15.2701 25.2319 14.8858 25.4887 14.463 25.6638C14.0401 25.839 13.5869 25.9291 13.1292 25.9291H6.17292C5.26349 25.9289 4.38997 26.284 3.73878 26.9189C3.0876 27.5537 2.71033 28.4179 2.6875 29.3271C2.6875 30.2515 3.05471 31.138 3.70835 31.7916C4.362 32.4453 5.24853 32.8125 6.17292 32.8125H29.1417" stroke="black" stroke-opacity="0.2" stroke-width="3" stroke-miterlimit="10"/>
<path d="M6.85833 18.9583H13.1292C13.5869 18.9583 14.0401 19.0485 14.463 19.2236C14.8858 19.3988 15.2701 19.6555 15.5937 19.9792C15.9174 20.3028 16.1741 20.687 16.3493 21.1099C16.5244 21.5328 16.6146 21.986 16.6146 22.4437C16.6146 22.9014 16.5244 23.3547 16.3493 23.7775C16.1741 24.2004 15.9174 24.5846 15.5937 24.9083C15.2701 25.2319 14.8858 25.4887 14.463 25.6638C14.0401 25.839 13.5869 25.9291 13.1292 25.9291H6.17292C5.26349 25.9289 4.38997 26.284 3.73878 26.9189C3.0876 27.5537 2.71033 28.4179 2.6875 29.3271C2.6875 30.2515 3.05471 31.138 3.70835 31.7916C4.362 32.4453 5.24853 32.8125 6.17292 32.8125H29.1417" stroke="black" stroke-opacity="0.2" stroke-width="3" stroke-miterlimit="10"/>
<path d="M6.85833 18.9583H13.1292C13.5869 18.9583 14.0401 19.0485 14.463 19.2236C14.8858 19.3988 15.2701 19.6555 15.5937 19.9792C15.9174 20.3028 16.1741 20.687 16.3493 21.1099C16.5244 21.5328 16.6146 21.986 16.6146 22.4437C16.6146 22.9014 16.5244 23.3547 16.3493 23.7775C16.1741 24.2004 15.9174 24.5846 15.5937 24.9083C15.2701 25.2319 14.8858 25.4887 14.463 25.6638C14.0401 25.839 13.5869 25.9291 13.1292 25.9291H6.17292C5.26349 25.9289 4.38997 26.284 3.73878 26.9189C3.0876 27.5537 2.71033 28.4179 2.6875 29.3271C2.6875 30.2515 3.05471 31.138 3.70835 31.7916C4.362 32.4453 5.24853 32.8125 6.17292 32.8125H29.1417" stroke="black" stroke-opacity="0.2" stroke-width="3" stroke-miterlimit="10"/>
<path d="M6.85833 18.9583H13.1292C13.5869 18.9583 14.0401 19.0485 14.463 19.2236C14.8858 19.3988 15.2701 19.6555 15.5937 19.9792C15.9174 20.3028 16.1741 20.687 16.3493 21.1099C16.5244 21.5328 16.6146 21.986 16.6146 22.4437C16.6146 22.9014 16.5244 23.3547 16.3493 23.7775C16.1741 24.2004 15.9174 24.5846 15.5937 24.9083C15.2701 25.2319 14.8858 25.4887 14.463 25.6638C14.0401 25.839 13.5869 25.9291 13.1292 25.9291H6.17292C5.26349 25.9289 4.38997 26.284 3.73878 26.9189C3.0876 27.5537 2.71033 28.4179 2.6875 29.3271C2.6875 30.2515 3.05471 31.138 3.70835 31.7916C4.362 32.4453 5.24853 32.8125 6.17292 32.8125H29.1417" stroke="black" stroke-opacity="0.2" stroke-width="3" stroke-miterlimit="10"/>
</svg>
